<?xml version="1.0" encoding="UTF-8"?>
<svg id="_图层_2" data-name="图层 2" xmlns="http://www.w3.org/2000/svg" viewBox="0 0 195.65 33.84">
  <g id="_图层_1-2" data-name="图层 1">
    <g>
      <path d="m0,15.41v-7.28h.99l2.03,4.99c.05.11.09.23.14.38.05.14.1.3.16.46.06.17.11.33.16.49s.1.32.15.46h-.18c.05-.14.09-.29.15-.45s.11-.32.16-.49.11-.32.16-.47c.05-.15.1-.28.15-.39l2.02-4.99h.99v7.28h-.68v-5.09c0-.17,0-.35,0-.54,0-.19,0-.38.01-.56s0-.37,0-.56h.08c-.06.2-.13.39-.2.59-.07.2-.14.4-.21.58s-.13.37-.19.53c-.06.17-.12.31-.17.43l-1.89,4.62h-.61l-1.9-4.62c-.05-.12-.1-.26-.16-.42s-.12-.33-.19-.52c-.07-.19-.14-.38-.21-.58s-.14-.41-.22-.61h.08c0,.17,0,.34,0,.53s0,.37,0,.56c0,.19,0,.38,0,.55,0,.18,0,.34,0,.49v4.62h-.66Z"/>
      <path d="m10.31,15.53c-.33,0-.63-.06-.91-.19s-.49-.31-.65-.56-.24-.55-.24-.9c0-.27.05-.5.15-.68.1-.18.25-.34.43-.46.19-.12.41-.21.67-.28s.54-.12.85-.16c.3-.04.56-.07.77-.1.21-.03.37-.07.49-.13s.17-.16.17-.3v-.13c0-.24-.05-.45-.15-.63s-.24-.31-.43-.41-.42-.14-.7-.14c-.26,0-.48.04-.68.12-.2.08-.36.18-.49.31-.13.13-.23.27-.29.42l-.63-.21c.12-.3.29-.53.51-.71s.46-.31.74-.39c.27-.08.55-.12.83-.12.21,0,.44.03.66.08.23.06.44.15.63.29.2.13.35.32.47.56.12.24.18.53.18.9v3.71h-.65v-.86h-.05c-.08.17-.19.33-.35.48-.15.15-.34.27-.56.37s-.48.14-.78.14Zm.1-.59c.33,0,.62-.07.86-.22s.43-.34.57-.59.2-.52.2-.82v-.78s-.13.09-.24.12-.24.07-.38.09-.28.05-.43.07-.27.04-.38.05c-.3.04-.56.09-.78.18s-.38.19-.49.33-.17.32-.17.53.05.4.16.56.25.27.44.35.4.12.63.12Z"/>
      <path d="m16.32,15.52c-.44,0-.83-.12-1.17-.35-.34-.24-.6-.57-.79-.99-.19-.42-.28-.92-.28-1.49s.09-1.06.28-1.48.45-.75.79-.99.73-.35,1.17-.35c.33,0,.61.06.83.18.22.12.4.26.53.44s.24.34.31.51h.05v-2.87h.66v7.28h-.64v-1.02h-.07c-.07.17-.18.34-.31.52s-.32.32-.54.44c-.22.12-.5.18-.83.18Zm.09-.6c.35,0,.65-.1.9-.29s.43-.46.56-.79c.13-.34.19-.72.19-1.16s-.06-.82-.19-1.15-.32-.59-.56-.78-.54-.28-.9-.28-.66.1-.9.29-.43.46-.56.79c-.13.33-.19.71-.19,1.13s.06.79.19,1.13.32.61.56.81.55.3.9.3Z"/>
      <path d="m22.6,15.52c-.51,0-.95-.12-1.33-.36-.37-.24-.66-.57-.86-.99s-.31-.91-.31-1.46.1-1.04.3-1.46.48-.76.84-1.01.78-.37,1.25-.37c.3,0,.59.05.86.16.28.11.53.28.75.5.22.22.4.51.52.85s.19.74.19,1.21v.29h-4.28v-.57h3.93l-.3.21c0-.39-.07-.74-.2-1.05s-.32-.55-.57-.73-.55-.27-.89-.27-.65.09-.91.27-.46.42-.61.72-.22.63-.22.99v.34c0,.43.07.8.22,1.12.15.32.36.57.64.75.27.18.6.27.97.27.25,0,.48-.04.67-.12s.36-.19.49-.33c.13-.13.23-.28.3-.44l.63.2c-.08.23-.22.44-.41.63s-.42.35-.71.47c-.28.12-.61.18-.98.18Z"/>
      <path d="m30.45,15.41l-2.01-7.28h.71l1.29,4.83c.06.22.11.44.17.66s.11.45.16.68c.05.23.1.46.14.7h-.09c.05-.24.09-.47.14-.7.05-.23.1-.46.16-.68s.11-.45.17-.66l1.29-4.83h.82l1.28,4.83c.06.22.12.44.17.66s.11.45.16.68c.05.23.1.46.15.7h-.1c.05-.24.1-.47.15-.7.05-.23.1-.46.16-.68s.11-.45.17-.66l1.29-4.83h.72l-2.02,7.28h-.83l-1.32-4.87c-.08-.3-.16-.62-.24-.95s-.15-.71-.22-1.12h.15c-.07.39-.14.75-.22,1.08s-.15.66-.24.99l-1.32,4.87h-.83Z"/>
      <path d="m39,8.94c-.13,0-.24-.05-.34-.14s-.14-.2-.14-.33.05-.24.14-.33c.1-.09.21-.13.34-.13s.25.04.34.13c.09.09.14.2.14.33s-.05.24-.14.33-.21.14-.34.14Zm-.34,6.47v-5.46h.66v5.46h-.66Z"/>
      <path d="m42.84,9.95v.58h-2.6v-.58h2.6Zm-1.79-1.3h.66v5.47c0,.27.06.47.18.6s.3.18.55.15c.05,0,.1,0,.17-.02.07-.01.13-.02.19-.04l.14.57c-.07.02-.15.04-.24.05s-.17.02-.26.02c-.44.03-.78-.07-1.02-.31-.25-.24-.37-.57-.37-.99v-5.51Z"/>
      <path d="m44.64,12v3.4h-.66v-7.28h.66v3.09h-.12c.15-.48.38-.82.71-1.03s.69-.32,1.1-.32c.37,0,.7.08.98.23.28.16.5.38.66.68s.24.66.24,1.09v3.53h-.66v-3.48c0-.45-.13-.8-.38-1.06-.25-.26-.59-.39-1.01-.39-.29,0-.54.06-.77.18-.23.12-.41.3-.54.53-.13.23-.2.5-.2.81Z"/>
    </g>
    <g>
      <g>
        <path d="m57.74,7.74h5.33v3.17h.18c.54-2.09,2.63-3.6,5.08-3.6,4.79,0,7.27,3.46,7.27,9.86s-2.48,9.9-7.27,9.9c-2.45,0-4.54-1.55-5.08-3.6h-.18v10.37h-5.33V7.74Zm12.31,11.09v-3.28c0-2.38-1.48-3.92-3.49-3.92s-3.49,1.04-3.49,2.77v5.58c0,1.73,1.48,2.77,3.49,2.77s3.49-1.55,3.49-3.92Z"/>
        <path d="m83.92,26.64c-3.64,0-5.29-1.84-5.29-5.18V0h5.33v22.5h2.38v4.14h-2.41Z"/>
        <path d="m103.5,26.64c-1.91,0-3.28-1.3-3.6-3.31h-.22c-.58,2.45-2.66,3.74-5.54,3.74-3.78,0-5.87-2.23-5.87-5.51,0-4,3.1-5.9,8.1-5.9h2.99v-1.19c0-1.84-.9-2.99-3.13-2.99s-3.24,1.08-4.07,2.23l-3.17-2.81c1.51-2.23,3.67-3.6,7.63-3.6,5.33,0,8.06,2.45,8.06,6.91v8.28h1.76v4.14h-2.95Zm-4.14-5.72v-2.23h-2.59c-2.05,0-3.13.76-3.13,2.12v.54c0,1.37.9,2.02,2.48,2.02,1.76,0,3.24-.72,3.24-2.45Z"/>
        <path d="m121.25,7.74h4.97l-7.27,21.81c-.97,2.92-2.56,4.28-5.79,4.28h-3.31v-4.14h3.56l.65-2.09-6.62-19.87h5.29l2.77,8.82,1.37,5.47h.22l1.4-5.47,2.77-8.82Z"/>
        <path d="m141.38,26.64c-1.91,0-3.28-1.3-3.6-3.31h-.22c-.58,2.45-2.66,3.74-5.54,3.74-3.78,0-5.87-2.23-5.87-5.51,0-4,3.1-5.9,8.1-5.9h2.99v-1.19c0-1.84-.9-2.99-3.13-2.99s-3.24,1.08-4.07,2.23l-3.17-2.81c1.51-2.23,3.67-3.6,7.63-3.6,5.33,0,8.06,2.45,8.06,6.91v8.28h1.76v4.14h-2.95Zm-4.14-5.72v-2.23h-2.59c-2.05,0-3.13.76-3.13,2.12v.54c0,1.37.9,2.02,2.48,2.02,1.76,0,3.24-.72,3.24-2.45Z"/>
        <path d="m146.9,0h5.33v10.91h.18c.54-2.09,2.63-3.6,5.08-3.6,4.79,0,7.27,3.46,7.27,9.86s-2.48,9.9-7.27,9.9c-2.45,0-4.54-1.55-5.08-3.6h-.18v3.17h-5.33V0Zm12.31,18.83v-3.28c0-2.38-1.48-3.92-3.49-3.92s-3.49,1.04-3.49,2.77v5.58c0,1.73,1.48,2.77,3.49,2.77s3.49-1.55,3.49-3.92Z"/>
        <path d="m173.08,26.64c-3.64,0-5.29-1.84-5.29-5.18V0h5.33v22.5h2.38v4.14h-2.41Z"/>
        <path d="m177.51,17.17c0-5.98,3.17-9.86,8.85-9.86,6.26,0,8.78,4.54,8.78,9.65v1.58h-12.13v.29c0,2.48,1.33,4.07,4.18,4.07,2.23,0,3.46-1.04,4.64-2.27l2.66,3.31c-1.69,1.94-4.46,3.13-7.92,3.13-5.8,0-9.07-3.85-9.07-9.9Zm5.51-2.05v.29h6.62v-.32c0-2.3-1.04-3.85-3.17-3.85s-3.46,1.55-3.46,3.89Z"/>
      </g>
      <path d="m194.8,10.05l.85-6.5-6.19,2.57c2.15.63,4.01,2.04,5.34,3.94Z"/>
    </g>
  </g>
</svg>